<?xml version="1.0" encoding="UTF-8"?>
<svg width="700pt" height="700pt" version="1.1" viewBox="0 0 700 700" xmlns="http://www.w3.org/2000/svg" xmlns:xlink="http://www.w3.org/1999/xlink">
 <defs>
  <symbol id="l" overflow="visible">
   <path d="m29.312-1.75c-1.5117 0.78125-3.0898 1.3711-4.7344 1.7656-1.6367 0.40625-3.3398 0.60938-5.1094 0.60938-5.3125 0-9.5273-1.4844-12.641-4.4531-3.1055-2.9688-4.6562-7-4.6562-12.094s1.5508-9.125 4.6562-12.094c3.1133-2.9688 7.3281-4.4531 12.641-4.4531 1.7695 0 3.4727 0.19922 5.1094 0.59375 1.6445 0.39844 3.2227 0.99219 4.7344 1.7812v6.5938c-1.5312-1.0391-3.0391-1.8008-4.5156-2.2812-1.4805-0.48828-3.0391-0.73438-4.6719-0.73438-2.9375 0-5.2461 0.94531-6.9219 2.8281-1.6797 1.875-2.5156 4.4648-2.5156 7.7656 0 3.293 0.83594 5.8828 2.5156 7.7656 1.6758 1.875 3.9844 2.8125 6.9219 2.8125 1.6328 0 3.1914-0.23828 4.6719-0.71875 1.4766-0.48828 2.9844-1.2539 4.5156-2.2969z"/>
  </symbol>
  <symbol id="d" overflow="visible">
   <path d="m21.453-17.406c-0.67969-0.3125-1.3516-0.53906-2.0156-0.6875-0.65625-0.15625-1.3203-0.23438-1.9844-0.23438-1.9688 0-3.4844 0.63281-4.5469 1.8906-1.0547 1.2617-1.5781 3.0703-1.5781 5.4219v11.016h-7.6562v-23.922h7.6562v3.9219c0.97656-1.5625 2.1016-2.7031 3.375-3.4219 1.2812-0.71875 2.8125-1.0781 4.5938-1.0781 0.25 0 0.52344 0.011719 0.82812 0.03125 0.30078 0.023438 0.73438 0.070312 1.2969 0.14062z"/>
  </symbol>
  <symbol id="a" overflow="visible">
   <path d="m27.562-12.031v2.1875h-17.891c0.1875 1.793 0.83203 3.1367 1.9375 4.0312 1.1133 0.89844 2.6719 1.3438 4.6719 1.3438 1.6016 0 3.25-0.23438 4.9375-0.70312 1.6875-0.47656 3.4219-1.2031 5.2031-2.1719v5.8906c-1.8047 0.6875-3.6094 1.2031-5.4219 1.5469-1.8125 0.35156-3.6211 0.53125-5.4219 0.53125-4.3359 0-7.7031-1.0977-10.109-3.2969-2.3984-2.207-3.5938-5.2969-3.5938-9.2656 0-3.9062 1.1758-6.9727 3.5312-9.2031 2.3633-2.2383 5.6094-3.3594 9.7344-3.3594 3.7578 0 6.7695 1.1367 9.0312 3.4062 2.2578 2.2617 3.3906 5.2812 3.3906 9.0625zm-7.8594-2.5312c0-1.457-0.42969-2.6289-1.2812-3.5156-0.84375-0.89453-1.9492-1.3438-3.3125-1.3438-1.4922 0-2.6992 0.41797-3.625 1.25-0.91797 0.83594-1.4922 2.0391-1.7188 3.6094z"/>
  </symbol>
  <symbol id="c" overflow="visible">
   <path d="m14.391-10.766c-1.5938 0-2.793 0.27344-3.5938 0.8125-0.80469 0.54297-1.2031 1.3398-1.2031 2.3906 0 0.96875 0.32031 1.7305 0.96875 2.2812 0.64453 0.54297 1.5469 0.8125 2.7031 0.8125 1.4375 0 2.6445-0.51562 3.625-1.5469 0.98828-1.0312 1.4844-2.3203 1.4844-3.875v-0.875zm11.688-2.8906v13.656h-7.7031v-3.5469c-1.0312 1.4492-2.1875 2.5078-3.4688 3.1719s-2.8398 1-4.6719 1c-2.4805 0-4.4961-0.72266-6.0469-2.1719-1.543-1.4453-2.3125-3.3203-2.3125-5.625 0-2.8125 0.96094-4.8672 2.8906-6.1719 1.9375-1.3125 4.9688-1.9688 9.0938-1.9688h4.5156v-0.60938c0-1.207-0.48047-2.0938-1.4375-2.6562-0.94922-0.5625-2.4375-0.84375-4.4688-0.84375-1.6367 0-3.1562 0.16797-4.5625 0.5-1.4062 0.32422-2.7188 0.8125-3.9375 1.4688v-5.8281c1.6445-0.40625 3.2891-0.70703 4.9375-0.90625 1.6562-0.20703 3.3047-0.3125 4.9531-0.3125 4.3203 0 7.4375 0.85547 9.3438 2.5625 1.9141 1.6992 2.875 4.4609 2.875 8.2812z"/>
  </symbol>
  <symbol id="i" overflow="visible">
   <path d="m12.031-30.719v6.7969h7.875v5.4688h-7.875v10.141c0 1.1172 0.21875 1.8711 0.65625 2.2656 0.4375 0.38672 1.3125 0.57812 2.625 0.57812h3.9375v5.4688h-6.5625c-3.0234 0-5.1641-0.62891-6.4219-1.8906-1.2617-1.2578-1.8906-3.3984-1.8906-6.4219v-10.141h-3.7969v-5.4688h3.7969v-6.7969z"/>
  </symbol>
  <symbol id="b" overflow="visible">
   <path d="m19.953-20.422v-12.812h7.6875v33.234h-7.6875v-3.4531c-1.0547 1.4062-2.2148 2.4375-3.4844 3.0938-1.2734 0.65625-2.7422 0.98438-4.4062 0.98438-2.9492 0-5.3711-1.1719-7.2656-3.5156-1.8867-2.3438-2.8281-5.3594-2.8281-9.0469s0.94141-6.7031 2.8281-9.0469c1.8945-2.3438 4.3164-3.5156 7.2656-3.5156 1.6562 0 3.1172 0.33594 4.3906 1 1.2812 0.65625 2.4453 1.6836 3.5 3.0781zm-5.0469 15.484c1.6445 0 2.8945-0.59766 3.75-1.7969 0.86328-1.1953 1.2969-2.9297 1.2969-5.2031 0-2.2812-0.43359-4.0195-1.2969-5.2188-0.85547-1.1953-2.1055-1.7969-3.75-1.7969-1.625 0-2.8711 0.60156-3.7344 1.7969-0.85547 1.1992-1.2812 2.9375-1.2812 5.2188 0 2.2734 0.42578 4.0078 1.2812 5.2031 0.86328 1.1992 2.1094 1.7969 3.7344 1.7969z"/>
  </symbol>
  <symbol id="h" overflow="visible">
   <path d="m16.406-4.9375c1.6328 0 2.8828-0.59766 3.75-1.7969 0.86328-1.1953 1.2969-2.9297 1.2969-5.2031 0-2.2812-0.43359-4.0195-1.2969-5.2188-0.86719-1.1953-2.1172-1.7969-3.75-1.7969-1.6367 0-2.8906 0.60547-3.7656 1.8125-0.875 1.1992-1.3125 2.9336-1.3125 5.2031 0 2.2617 0.4375 3.9961 1.3125 5.2031 0.875 1.1992 2.1289 1.7969 3.7656 1.7969zm-5.0781-15.484c1.0508-1.3945 2.2188-2.4219 3.5-3.0781 1.2812-0.66406 2.7539-1 4.4219-1 2.9453 0 5.3672 1.1719 7.2656 3.5156 1.8945 2.3438 2.8438 5.3594 2.8438 9.0469s-0.94922 6.7031-2.8438 9.0469c-1.8984 2.3438-4.3203 3.5156-7.2656 3.5156-1.668 0-3.1406-0.33594-4.4219-1s-2.4492-1.6914-3.5-3.0781v3.4531h-7.6562v-33.234h7.6562z"/>
  </symbol>
  <symbol id="g" overflow="visible">
   <path d="m0.53125-23.922h7.6562l6.4219 16.234 5.4688-16.234h7.6562l-10.062 26.188c-1.0117 2.6641-2.1953 4.5234-3.5469 5.5781-1.3438 1.0625-3.1211 1.5938-5.3281 1.5938h-4.4219v-5.0156h2.3906c1.3008 0 2.2422-0.21094 2.8281-0.625 0.59375-0.40625 1.0547-1.1484 1.3906-2.2188l0.20312-0.65625z"/>
  </symbol>
  <symbol id="f" overflow="visible">
   <path d="m4.0156-31.891h8.2188v12.156h12.141v-12.156h8.2188v31.891h-8.2188v-13.516h-12.141v13.516h-8.2188z"/>
  </symbol>
  <symbol id="e" overflow="visible">
   <path d="m3.6719-23.922h7.6562v23.922h-7.6562zm0-9.3125h7.6562v6.2344h-7.6562z"/>
  </symbol>
  <symbol id="k" overflow="visible">
   <path d="m23.375-5.8125h-12.859l-2.0312 5.8125h-8.2656l11.812-31.891h9.7969l11.812 31.891h-8.2656zm-10.812-5.9219h8.7344l-4.3594-12.688z"/>
  </symbol>
  <symbol id="j" overflow="visible">
   <path d="m3.6719-33.234h7.6562v33.234h-7.6562z"/>
  </symbol>
 </defs>
 <g>
  <path d="m349.65 446.43h-1.75c-100.8-0.69922-194.6-61.34-250.77-162.23-1.4883-2.625-1.3984-5.7734 0.085938-8.3125 59.148-103.16 151.38-162.23 253.14-162.23h1.6641c100.98 0.61328 194.77 61.336 250.95 162.31 1.4883 2.625 1.3984 5.7734-0.085938 8.3125-59.238 103.08-151.46 162.14-253.23 162.14zm-235.38-166.34c53.375 93.012 140.44 148.75 233.8 149.36 94.938 0.61328 181.21-53.812 237.65-149.45-53.375-93.102-140.52-148.84-233.89-149.45-94.676-0.78906-181.13 53.812-237.57 149.54z"/>
  <path d="m350 375.64c-52.762 0-95.637-42.875-95.637-95.637s42.875-95.637 95.637-95.637 95.637 42.875 95.637 95.637-42.875 95.637-95.637 95.637zm0-174.3c-43.398 0-78.664 35.352-78.664 78.664s35.262 78.664 78.664 78.664c43.398 0 78.664-35.262 78.664-78.664 0-43.398-35.266-78.664-78.664-78.664z"/>
  <path d="m321.04 81.289c-4.7266 0-8.4883-3.7617-8.4883-8.4883v-64.312c0-4.7266 3.7617-8.4883 8.4883-8.4883 4.7266 0 8.4883 3.7617 8.4883 8.4883v64.398c-0.003906 4.6367-3.8516 8.4023-8.4883 8.4023z"/>
  <path d="m269.06 88.199c-3.7617 0-7.1758-2.5391-8.2266-6.3008l-16.625-62.125c-1.2266-4.5508 1.4883-9.1875 6.0391-10.414s9.1875 1.4883 10.414 6.0391l16.625 62.125c1.2266 4.5508-1.4883 9.1875-6.0391 10.414-0.78906 0.17578-1.4883 0.26172-2.1875 0.26172z"/>
  <path d="m220.59 108.24c-2.9766 0-5.7734-1.4883-7.3516-4.1992l-32.199-55.738c-2.3633-4.0234-0.96094-9.2734 3.1484-11.551 4.0234-2.3633 9.2734-0.96094 11.551 3.1484l32.199 55.738c2.3633 4.0234 0.96094 9.2734-3.1484 11.551-1.3086 0.69922-2.7109 1.0508-4.1992 1.0508z"/>
  <path d="m179.02 140.18c-2.1875 0-4.375-0.78906-6.0391-2.4492l-45.5-45.5c-3.3242-3.3242-3.3242-8.6641 0-11.988s8.6641-3.3242 11.988 0l45.5 45.5c3.3242 3.3242 3.3242 8.6641 0 11.988-1.6602 1.5742-3.8477 2.4492-5.9492 2.4492z"/>
  <path d="m147.09 181.74c-1.3984 0-2.8867-0.35156-4.1992-1.1367l-55.738-32.199c-4.1094-2.2773-5.5117-7.5273-3.1484-11.551 2.3633-4.0234 7.5234-5.4258 11.551-3.1484l55.738 32.199c4.0234 2.3633 5.4258 7.5234 3.1484 11.551-1.5742 2.7969-4.4609 4.2852-7.3516 4.2852z"/>
  <path d="m378.96 81.289c-4.7266 0-8.4883-3.7617-8.4883-8.4883l0.003906-64.312c0-4.7266 3.7617-8.4883 8.4883-8.4883 4.7266 0 8.4883 3.7617 8.4883 8.4883v64.398c-0.003906 4.6367-3.7656 8.4023-8.4922 8.4023z"/>
  <path d="m430.94 88.199c-0.69922 0-1.4883-0.085938-2.1875-0.26172-4.5508-1.2266-7.1758-5.8633-6.0391-10.414l16.625-62.125c1.2266-4.5508 5.8633-7.1758 10.414-6.0391 4.5508 1.2266 7.1758 5.8633 6.0391 10.414l-16.625 62.125c-1.0508 3.7656-4.4648 6.3008-8.2266 6.3008z"/>
  <path d="m479.41 108.24c-1.3984 0-2.8867-0.35156-4.1992-1.1367-4.0234-2.3633-5.4258-7.5234-3.1484-11.551l32.199-55.738c2.3633-4.0234 7.5234-5.4258 11.551-3.1484 4.0234 2.3633 5.4258 7.5234 3.1484 11.551l-32.199 55.738c-1.5781 2.7969-4.4648 4.2852-7.3516 4.2852z"/>
  <path d="m520.98 140.18c-2.1875 0-4.375-0.78906-6.0391-2.4492-3.3242-3.3242-3.3242-8.6641 0-11.988l45.5-45.5c3.3242-3.3242 8.6641-3.3242 11.988 0s3.3242 8.6641 0 11.988l-45.5 45.5c-1.5742 1.5742-3.7617 2.4492-5.9492 2.4492z"/>
  <path d="m552.91 181.74c-2.9766 0-5.7734-1.4883-7.3516-4.1992-2.3633-4.0234-0.96094-9.2734 3.1484-11.551l55.738-32.199c4.0234-2.3633 9.2734-0.96094 11.551 3.1484 2.3633 4.0234 0.96094 9.2734-3.1484 11.551l-55.738 32.199c-1.3125 0.69922-2.7148 1.0508-4.1992 1.0508z"/>
  <path d="m321.04 560c-4.7266 0-8.4883-3.7617-8.4883-8.4883v-64.398c0-4.7266 3.7617-8.4883 8.4883-8.4883 4.7266 0 8.4883 3.7617 8.4883 8.4883v64.398c-0.003906 4.7266-3.8516 8.4883-8.4883 8.4883z"/>
  <path d="m252.35 550.99c-0.69922 0-1.4883-0.085937-2.1875-0.26172-4.5508-1.2266-7.1758-5.8633-6.0391-10.414l16.625-62.125c1.2266-4.5508 5.8633-7.1758 10.414-6.0391 4.5508 1.2266 7.1758 5.8633 6.0391 10.414l-16.625 62.125c-1.0547 3.7617-4.4648 6.3008-8.2266 6.3008z"/>
  <path d="m188.39 524.48c-1.3984 0-2.8867-0.35156-4.1992-1.1367-4.0234-2.3633-5.4258-7.5234-3.1484-11.551l32.199-55.738c2.3633-4.0234 7.5234-5.4258 11.551-3.1484 4.0234 2.3633 5.4258 7.5234 3.1484 11.551l-32.199 55.738c-1.5742 2.7969-4.375 4.2852-7.3516 4.2852z"/>
  <path d="m133.52 482.3c-2.1875 0-4.375-0.78906-6.0391-2.4492-3.3242-3.3242-3.3242-8.6641 0-11.988l45.5-45.5c3.3242-3.3242 8.6641-3.3242 11.988 0 3.3242 3.3242 3.3242 8.6641 0 11.988l-45.5 45.5c-1.6602 1.6602-3.8477 2.4492-5.9492 2.4492z"/>
  <path d="m91.352 427.44c-2.9766 0-5.7734-1.4883-7.3516-4.1992-2.3633-4.0234-0.96094-9.2734 3.1484-11.551l55.738-32.199c4.0234-2.3633 9.2734-0.96094 11.551 3.1484 2.3633 4.0234 0.96094 9.2734-3.1484 11.551l-55.738 32.199c-1.3125 0.61328-2.8008 1.0508-4.1992 1.0508z"/>
  <path d="m378.96 560c-4.7266 0-8.4883-3.7617-8.4883-8.4883v-64.398c0-4.7266 3.7617-8.4883 8.4883-8.4883 4.7266 0 8.4883 3.7617 8.4883 8.4883v64.398c0 4.7266-3.7617 8.4883-8.4883 8.4883z"/>
  <path d="m447.65 550.99c-3.7617 0-7.1758-2.5391-8.2266-6.3008l-16.625-62.125c-1.2266-4.5508 1.4883-9.1875 6.0391-10.414 4.5508-1.2266 9.1875 1.4883 10.414 6.0391l16.625 62.125c1.2266 4.5508-1.4883 9.1875-6.0391 10.414-0.78516 0.17188-1.4844 0.26172-2.1875 0.26172z"/>
  <path d="m511.61 524.48c-2.9766 0-5.7734-1.4883-7.3516-4.1992l-32.199-55.738c-2.3633-4.0234-0.96094-9.2734 3.1484-11.551 4.0234-2.3633 9.2734-0.96094 11.551 3.1484l32.199 55.738c2.3633 4.0234 0.96094 9.2734-3.1484 11.551-1.3125 0.69922-2.8008 1.0508-4.1992 1.0508z"/>
  <path d="m566.48 482.3c-2.1875 0-4.375-0.78906-6.0391-2.4492l-45.5-45.5c-3.3242-3.3242-3.3242-8.6641 0-11.988s8.6641-3.3242 11.988 0l45.5 45.5c3.3242 3.3242 3.3242 8.6641 0 11.988-1.5742 1.6602-3.7617 2.4492-5.9492 2.4492z"/>
  <path d="m608.65 427.44c-1.3984 0-2.8867-0.35156-4.1992-1.1367l-55.738-32.199c-4.0234-2.3633-5.4258-7.5234-3.1484-11.551 2.3633-4.0234 7.5234-5.4258 11.551-3.1484l55.738 32.199c4.0234 2.3633 5.4258 7.5234 3.1484 11.551-1.5742 2.7109-4.375 4.2852-7.3516 4.2852z"/>
  <use x="70" y="691.25" xlink:href="#l"/>
  <use x="102.109375" y="691.25" xlink:href="#d"/>
  <use x="123.683594" y="691.25" xlink:href="#a"/>
  <use x="153.355469" y="691.25" xlink:href="#c"/>
  <use x="182.878906" y="691.25" xlink:href="#i"/>
  <use x="203.792969" y="691.25" xlink:href="#a"/>
  <use x="233.464844" y="691.25" xlink:href="#b"/>
  <use x="280.011719" y="691.25" xlink:href="#h"/>
  <use x="311.328125" y="691.25" xlink:href="#g"/>
  <use x="355.078125" y="691.25" xlink:href="#f"/>
  <use x="391.695312" y="691.25" xlink:href="#c"/>
  <use x="421.21875" y="691.25" xlink:href="#e"/>
  <use x="436.214844" y="691.25" xlink:href="#b"/>
  <use x="467.53125" y="691.25" xlink:href="#a"/>
  <use x="497.203125" y="691.25" xlink:href="#d"/>
  <use x="534.011719" y="691.25" xlink:href="#k"/>
  <use x="567.871094" y="691.25" xlink:href="#j"/>
  <use x="582.867188" y="691.25" xlink:href="#e"/>
 </g>
</svg>
